<?xml version="1.0" standalone="no"?><svg xmlns="http://www.w3.org/2000/svg" viewBox="0 0 1440 320"><path fill="#0099ff" fill-opacity="1" d="M0,160L34.3,149.3C68.6,139,137,117,206,112C274.3,107,343,117,411,106.7C480,96,549,64,617,64C685.7,64,754,96,823,117.3C891.4,139,960,149,1029,138.7C1097.1,128,1166,96,1234,80C1302.9,64,1371,64,1406,64L1440,64L1440,320L1405.7,320C1371.4,320,1303,320,1234,320C1165.7,320,1097,320,1029,320C960,320,891,320,823,320C754.3,320,686,320,617,320C548.6,320,480,320,411,320C342.9,320,274,320,206,320C137.1,320,69,320,34,320L0,320Z"></path></svg>